<svg id="visual" viewBox="0 0 900 600" width="900" height="600" xmlns="http://www.w3.org/2000/svg" xmlns:xlink="http://www.w3.org/1999/xlink" version="1.1"><g stroke-width="1" stroke-linejoin="bevel"><path d="M458.5 304L431.5 315L442.5 344Z" fill="#ffffff" stroke="#e2e2e2"></path><path d="M442.5 344L463.5 349L458.5 304Z" fill="#ffffff" stroke="#e2e2e2"></path><path d="M442.5 344L461.5 383L463.5 349Z" fill="#ffffff" stroke="#e2e2e2"></path><path d="M458.5 304L403.5 267L431.5 315Z" fill="#ffffff" stroke="#e2e2e2"></path><path d="M431.5 315L377.6 361L442.5 344Z" fill="#ffffff" stroke="#e2e2e2"></path><path d="M442.5 344L419.5 411L461.5 383Z" fill="#ffffff" stroke="#e2e2e2"></path><path d="M524.4 296L494.5 261L458.5 304Z" fill="#ffffff" stroke="#e2e2e2"></path><path d="M458.5 304L494.5 261L403.5 267Z" fill="#ffffff" stroke="#e2e2e2"></path><path d="M524.4 296L458.5 304L463.5 349Z" fill="#ffffff" stroke="#e2e2e2"></path><path d="M526.4 348L524.4 296L463.5 349Z" fill="#ffffff" stroke="#e2e2e2"></path><path d="M461.5 383L526.4 348L463.5 349Z" fill="#ffffff" stroke="#e2e2e2"></path><path d="M368.6 318L377.6 361L431.5 315Z" fill="#ffffff" stroke="#e2e2e2"></path><path d="M403.5 267L368.6 318L431.5 315Z" fill="#ffffff" stroke="#e2e2e2"></path><path d="M377.6 361L419.5 411L442.5 344Z" fill="#ffffff" stroke="#e2e2e2"></path><path d="M461.5 383L537.4 404L526.4 348Z" fill="#ffffff" stroke="#e2e2e2"></path><path d="M377.6 361L383.6 411L419.5 411Z" fill="#ffffff" stroke="#e2e2e2"></path><path d="M328.6 394L383.6 411L377.6 361Z" fill="#ffffff" stroke="#e2e2e2"></path><path d="M531.4 434L537.4 404L461.5 383Z" fill="#ffffff" stroke="#e2e2e2"></path><path d="M592.4 269L545.4 242L524.4 296Z" fill="#ffffff" stroke="#e2e2e2"></path><path d="M336.6 252L327.6 319L368.6 318Z" fill="#ffffff" stroke="#e2e2e2"></path><path d="M368.6 318L327.6 319L377.6 361Z" fill="#ffffff" stroke="#e2e2e2"></path><path d="M591.4 341L524.4 296L526.4 348Z" fill="#ffffff" stroke="#e2e2e2"></path><path d="M524.4 296L545.4 242L494.5 261Z" fill="#ffffff" stroke="#e2e2e2"></path><path d="M494.5 261L470.5 199L403.5 267Z" fill="#ffffff" stroke="#e2e2e2"></path><path d="M544.4 201L470.5 199L494.5 261Z" fill="#ffffff" stroke="#e2e2e2"></path><path d="M403.5 267L336.6 252L368.6 318Z" fill="#ffffff" stroke="#e2e2e2"></path><path d="M434.5 191L364.6 230L403.5 267Z" fill="#ffffff" stroke="#e2e2e2"></path><path d="M470.5 199L434.5 191L403.5 267Z" fill="#ffffff" stroke="#e2e2e2"></path><path d="M364.6 230L336.6 252L403.5 267Z" fill="#ffffff" stroke="#e2e2e2"></path><path d="M477.5 468L461.5 383L419.5 411Z" fill="#ffffff" stroke="#e2e2e2"></path><path d="M477.5 468L531.4 434L461.5 383Z" fill="#ffffff" stroke="#e2e2e2"></path><path d="M585.4 437L578.4 384L537.4 404Z" fill="#ffffff" stroke="#e2e2e2"></path><path d="M537.4 404L578.4 384L526.4 348Z" fill="#ffffff" stroke="#e2e2e2"></path><path d="M309.6 368L328.6 394L377.6 361Z" fill="#ffffff" stroke="#e2e2e2"></path><path d="M578.4 384L591.4 341L526.4 348Z" fill="#ffffff" stroke="#e2e2e2"></path><path d="M355.6 464L405.5 463L383.6 411Z" fill="#ffffff" stroke="#e2e2e2"></path><path d="M383.6 411L405.5 463L419.5 411Z" fill="#ffffff" stroke="#e2e2e2"></path><path d="M405.5 463L477.5 468L419.5 411Z" fill="#ffffff" stroke="#e2e2e2"></path><path d="M591.4 341L597.4 319L524.4 296Z" fill="#ffffff" stroke="#e2e2e2"></path><path d="M434.5 191L363.6 205L364.6 230Z" fill="#ffffff" stroke="#e2e2e2"></path><path d="M364.6 230L363.6 205L336.6 252Z" fill="#ffffff" stroke="#e2e2e2"></path><path d="M269.7 307L309.6 368L327.6 319Z" fill="#ffffff" stroke="#e2e2e2"></path><path d="M327.6 319L309.6 368L377.6 361Z" fill="#ffffff" stroke="#e2e2e2"></path><path d="M597.4 319L592.4 269L524.4 296Z" fill="#ffffff" stroke="#e2e2e2"></path><path d="M581.4 219L544.4 201L545.4 242Z" fill="#ffffff" stroke="#e2e2e2"></path><path d="M545.4 242L544.4 201L494.5 261Z" fill="#ffffff" stroke="#e2e2e2"></path><path d="M470.5 199L466.5 149L434.5 191Z" fill="#ffffff" stroke="#e2e2e2"></path><path d="M592.4 269L581.4 219L545.4 242Z" fill="#ffffff" stroke="#e2e2e2"></path><path d="M358.6 489L355.6 464L331.6 504Z" fill="#ffffff" stroke="#e2e2e2"></path><path d="M328.6 394L355.6 464L383.6 411Z" fill="#ffffff" stroke="#e2e2e2"></path><path d="M466.5 505L523.4 481L477.5 468Z" fill="#ffffff" stroke="#e2e2e2"></path><path d="M477.5 468L523.4 481L531.4 434Z" fill="#ffffff" stroke="#e2e2e2"></path><path d="M531.4 434L585.4 437L537.4 404Z" fill="#ffffff" stroke="#e2e2e2"></path><path d="M466.5 505L477.5 468L405.5 463Z" fill="#ffffff" stroke="#e2e2e2"></path><path d="M624.3 362L620.3 284L597.4 319Z" fill="#ffffff" stroke="#e2e2e2"></path><path d="M597.4 319L620.3 284L592.4 269Z" fill="#ffffff" stroke="#e2e2e2"></path><path d="M592.4 269L620.3 244L581.4 219Z" fill="#ffffff" stroke="#e2e2e2"></path><path d="M624.3 362L597.4 319L591.4 341Z" fill="#ffffff" stroke="#e2e2e2"></path><path d="M523.4 481L585.4 437L531.4 434Z" fill="#ffffff" stroke="#e2e2e2"></path><path d="M578.4 384L624.3 362L591.4 341Z" fill="#ffffff" stroke="#e2e2e2"></path><path d="M537.4 151L470.5 199L544.4 201Z" fill="#ffffff" stroke="#e2e2e2"></path><path d="M537.4 151L466.5 149L470.5 199Z" fill="#ffffff" stroke="#e2e2e2"></path><path d="M434.5 191L358.6 149L363.6 205Z" fill="#ffffff" stroke="#e2e2e2"></path><path d="M626.3 402L624.3 362L578.4 384Z" fill="#ffffff" stroke="#e2e2e2"></path><path d="M427.5 515L466.5 505L405.5 463Z" fill="#ffffff" stroke="#e2e2e2"></path><path d="M276.7 231L269.7 307L336.6 252Z" fill="#ffffff" stroke="#e2e2e2"></path><path d="M336.6 252L269.7 307L327.6 319Z" fill="#ffffff" stroke="#e2e2e2"></path><path d="M309.6 461L355.6 464L328.6 394Z" fill="#ffffff" stroke="#e2e2e2"></path><path d="M466.5 149L440.5 142L434.5 191Z" fill="#ffffff" stroke="#e2e2e2"></path><path d="M620.3 284L620.3 244L592.4 269Z" fill="#ffffff" stroke="#e2e2e2"></path><path d="M630.3 197L620.3 244L671.2 191Z" fill="#ffffff" stroke="#e2e2e2"></path><path d="M264.7 380L328.6 394L309.6 368Z" fill="#ffffff" stroke="#e2e2e2"></path><path d="M355.6 464L358.6 489L405.5 463Z" fill="#ffffff" stroke="#e2e2e2"></path><path d="M585.4 437L626.3 402L578.4 384Z" fill="#ffffff" stroke="#e2e2e2"></path><path d="M702.2 252L620.3 244L620.3 284Z" fill="#ffffff" stroke="#e2e2e2"></path><path d="M358.6 489L427.5 515L405.5 463Z" fill="#ffffff" stroke="#e2e2e2"></path><path d="M590.4 145L544.4 201L581.4 219Z" fill="#ffffff" stroke="#e2e2e2"></path><path d="M590.4 145L537.4 151L544.4 201Z" fill="#ffffff" stroke="#e2e2e2"></path><path d="M466.5 149L473.5 117L440.5 142Z" fill="#ffffff" stroke="#e2e2e2"></path><path d="M247.7 363L264.7 380L309.6 368Z" fill="#ffffff" stroke="#e2e2e2"></path><path d="M273.7 436L309.6 461L328.6 394Z" fill="#ffffff" stroke="#e2e2e2"></path><path d="M308.6 181L336.6 252L363.6 205Z" fill="#ffffff" stroke="#e2e2e2"></path><path d="M308.6 181L276.7 231L336.6 252Z" fill="#ffffff" stroke="#e2e2e2"></path><path d="M440.5 142L358.6 149L434.5 191Z" fill="#ffffff" stroke="#e2e2e2"></path><path d="M358.6 149L308.6 181L363.6 205Z" fill="#ffffff" stroke="#e2e2e2"></path><path d="M269.7 307L247.7 363L309.6 368Z" fill="#ffffff" stroke="#e2e2e2"></path><path d="M264.7 380L273.7 436L328.6 394Z" fill="#ffffff" stroke="#e2e2e2"></path><path d="M208.8 301L247.7 363L269.7 307Z" fill="#ffffff" stroke="#e2e2e2"></path><path d="M537.4 151L473.5 117L466.5 149Z" fill="#ffffff" stroke="#e2e2e2"></path><path d="M440.5 142L418.5 95L358.6 149Z" fill="#ffffff" stroke="#e2e2e2"></path><path d="M206.8 402L273.7 436L264.7 380Z" fill="#ffffff" stroke="#e2e2e2"></path><path d="M309.6 461L331.6 504L355.6 464Z" fill="#ffffff" stroke="#e2e2e2"></path><path d="M358.6 489L359.6 541L427.5 515Z" fill="#ffffff" stroke="#e2e2e2"></path><path d="M280.7 493L331.6 504L309.6 461Z" fill="#ffffff" stroke="#e2e2e2"></path><path d="M308.6 181L272.7 201L276.7 231Z" fill="#ffffff" stroke="#e2e2e2"></path><path d="M212.8 250L208.8 301L269.7 307Z" fill="#ffffff" stroke="#e2e2e2"></path><path d="M255.7 165L272.7 201L308.6 181Z" fill="#ffffff" stroke="#e2e2e2"></path><path d="M669.2 355L620.3 284L624.3 362Z" fill="#ffffff" stroke="#e2e2e2"></path><path d="M620.3 244L630.3 197L581.4 219Z" fill="#ffffff" stroke="#e2e2e2"></path><path d="M537.4 151L532.4 99L473.5 117Z" fill="#ffffff" stroke="#e2e2e2"></path><path d="M427.5 515L460.5 544L466.5 505Z" fill="#ffffff" stroke="#e2e2e2"></path><path d="M466.5 505L527.4 557L523.4 481Z" fill="#ffffff" stroke="#e2e2e2"></path><path d="M600.4 511L641.3 456L585.4 437Z" fill="#ffffff" stroke="#e2e2e2"></path><path d="M585.4 437L641.3 456L626.3 402Z" fill="#ffffff" stroke="#e2e2e2"></path><path d="M414.5 557L460.5 544L427.5 515Z" fill="#ffffff" stroke="#e2e2e2"></path><path d="M626.3 402L669.2 355L624.3 362Z" fill="#ffffff" stroke="#e2e2e2"></path><path d="M630.3 197L590.4 145L581.4 219Z" fill="#ffffff" stroke="#e2e2e2"></path><path d="M600.4 511L585.4 437L523.4 481Z" fill="#ffffff" stroke="#e2e2e2"></path><path d="M626.3 402L699.2 386L669.2 355Z" fill="#ffffff" stroke="#e2e2e2"></path><path d="M421.5 56L418.5 95L473.5 117Z" fill="#ffffff" stroke="#e2e2e2"></path><path d="M473.5 117L418.5 95L440.5 142Z" fill="#ffffff" stroke="#e2e2e2"></path><path d="M358.6 149L301.6 140L308.6 181Z" fill="#ffffff" stroke="#e2e2e2"></path><path d="M336.6 565L359.6 541L331.6 504Z" fill="#ffffff" stroke="#e2e2e2"></path><path d="M331.6 504L359.6 541L358.6 489Z" fill="#ffffff" stroke="#e2e2e2"></path><path d="M359.6 541L414.5 557L427.5 515Z" fill="#ffffff" stroke="#e2e2e2"></path><path d="M354.6 106L301.6 140L358.6 149Z" fill="#ffffff" stroke="#e2e2e2"></path><path d="M418.5 95L354.6 106L358.6 149Z" fill="#ffffff" stroke="#e2e2e2"></path><path d="M527.4 557L466.5 505L460.5 544Z" fill="#ffffff" stroke="#e2e2e2"></path><path d="M527.4 557L600.4 511L523.4 481Z" fill="#ffffff" stroke="#e2e2e2"></path><path d="M589.4 112L532.4 99L537.4 151Z" fill="#ffffff" stroke="#e2e2e2"></path><path d="M218.8 444L280.7 493L273.7 436Z" fill="#ffffff" stroke="#e2e2e2"></path><path d="M273.7 436L280.7 493L309.6 461Z" fill="#ffffff" stroke="#e2e2e2"></path><path d="M212.8 250L276.7 231L226.8 212Z" fill="#ffffff" stroke="#e2e2e2"></path><path d="M212.8 250L269.7 307L276.7 231Z" fill="#ffffff" stroke="#e2e2e2"></path><path d="M247.7 363L206.8 402L264.7 380Z" fill="#ffffff" stroke="#e2e2e2"></path><path d="M483.5 600L527.4 557L460.5 544Z" fill="#ffffff" stroke="#e2e2e2"></path><path d="M699.2 386L700.2 319L669.2 355Z" fill="#ffffff" stroke="#e2e2e2"></path><path d="M669.2 355L700.2 319L620.3 284Z" fill="#ffffff" stroke="#e2e2e2"></path><path d="M226.8 212L276.7 231L272.7 201Z" fill="#ffffff" stroke="#e2e2e2"></path><path d="M255.7 165L226.8 212L272.7 201Z" fill="#ffffff" stroke="#e2e2e2"></path><path d="M301.6 140L255.7 165L308.6 181Z" fill="#ffffff" stroke="#e2e2e2"></path><path d="M257.7 94L255.7 165L301.6 140Z" fill="#ffffff" stroke="#e2e2e2"></path><path d="M702.2 484L677.2 438L641.3 456Z" fill="#ffffff" stroke="#e2e2e2"></path><path d="M641.3 456L677.2 438L626.3 402Z" fill="#ffffff" stroke="#e2e2e2"></path><path d="M617.3 130L589.4 112L590.4 145Z" fill="#ffffff" stroke="#e2e2e2"></path><path d="M590.4 145L589.4 112L537.4 151Z" fill="#ffffff" stroke="#e2e2e2"></path><path d="M617.3 130L590.4 145L630.3 197Z" fill="#ffffff" stroke="#e2e2e2"></path><path d="M175.8 280L197.8 331L208.8 301Z" fill="#ffffff" stroke="#e2e2e2"></path><path d="M208.8 301L197.8 331L247.7 363Z" fill="#ffffff" stroke="#e2e2e2"></path><path d="M676.2 141L617.3 130L630.3 197Z" fill="#ffffff" stroke="#e2e2e2"></path><path d="M677.2 438L699.2 386L626.3 402Z" fill="#ffffff" stroke="#e2e2e2"></path><path d="M197.8 331L206.8 402L247.7 363Z" fill="#ffffff" stroke="#e2e2e2"></path><path d="M702.2 252L671.2 191L620.3 244Z" fill="#ffffff" stroke="#e2e2e2"></path><path d="M527.4 557L598.4 537L600.4 511Z" fill="#ffffff" stroke="#e2e2e2"></path><path d="M600.4 511L634.3 511L641.3 456Z" fill="#ffffff" stroke="#e2e2e2"></path><path d="M206.8 402L218.8 444L273.7 436Z" fill="#ffffff" stroke="#e2e2e2"></path><path d="M738.2 253L702.2 252L700.2 319Z" fill="#ffffff" stroke="#e2e2e2"></path><path d="M700.2 319L702.2 252L620.3 284Z" fill="#ffffff" stroke="#e2e2e2"></path><path d="M598.4 537L634.3 511L600.4 511Z" fill="#ffffff" stroke="#e2e2e2"></path><path d="M280.7 493L336.6 565L331.6 504Z" fill="#ffffff" stroke="#e2e2e2"></path><path d="M359.6 541L378.6 600L414.5 557Z" fill="#ffffff" stroke="#e2e2e2"></path><path d="M414.5 557L419.5 600L460.5 544Z" fill="#ffffff" stroke="#e2e2e2"></path><path d="M315.6 600L336.6 565L246.7 555Z" fill="#ffffff" stroke="#e2e2e2"></path><path d="M493.5 42L421.5 56L473.5 117Z" fill="#ffffff" stroke="#e2e2e2"></path><path d="M418.5 95L369.6 43L354.6 106Z" fill="#ffffff" stroke="#e2e2e2"></path><path d="M354.6 106L311.6 87L301.6 140Z" fill="#ffffff" stroke="#e2e2e2"></path><path d="M493.5 42L473.5 117L532.4 99Z" fill="#ffffff" stroke="#e2e2e2"></path><path d="M319.6 46L311.6 87L354.6 106Z" fill="#ffffff" stroke="#e2e2e2"></path><path d="M378.6 600L419.5 600L414.5 557Z" fill="#ffffff" stroke="#e2e2e2"></path><path d="M527.4 557L576.4 600L598.4 537Z" fill="#ffffff" stroke="#e2e2e2"></path><path d="M419.5 600L483.5 600L460.5 544Z" fill="#ffffff" stroke="#e2e2e2"></path><path d="M576.4 39L532.4 99L589.4 112Z" fill="#ffffff" stroke="#e2e2e2"></path><path d="M576.4 39L531.4 58L532.4 99Z" fill="#ffffff" stroke="#e2e2e2"></path><path d="M167.8 209L175.8 280L212.8 250Z" fill="#ffffff" stroke="#e2e2e2"></path><path d="M212.8 250L175.8 280L208.8 301Z" fill="#ffffff" stroke="#e2e2e2"></path><path d="M197.8 331L155.8 335L206.8 402Z" fill="#ffffff" stroke="#e2e2e2"></path><path d="M167.8 209L212.8 250L226.8 212Z" fill="#ffffff" stroke="#e2e2e2"></path><path d="M677.2 438L729.2 384L699.2 386Z" fill="#ffffff" stroke="#e2e2e2"></path><path d="M699.2 386L729.2 384L700.2 319Z" fill="#ffffff" stroke="#e2e2e2"></path><path d="M759.2 437L729.2 384L677.2 438Z" fill="#ffffff" stroke="#e2e2e2"></path><path d="M336.6 565L378.6 600L359.6 541Z" fill="#ffffff" stroke="#e2e2e2"></path><path d="M531.4 58L493.5 42L532.4 99Z" fill="#ffffff" stroke="#e2e2e2"></path><path d="M749.2 335L740.2 318L700.2 319Z" fill="#ffffff" stroke="#e2e2e2"></path><path d="M726.2 130L676.2 141L671.2 191Z" fill="#ffffff" stroke="#e2e2e2"></path><path d="M750.2 192L671.2 191L702.2 252Z" fill="#ffffff" stroke="#e2e2e2"></path><path d="M671.2 191L676.2 141L630.3 197Z" fill="#ffffff" stroke="#e2e2e2"></path><path d="M617.3 130L625.3 88L589.4 112Z" fill="#ffffff" stroke="#e2e2e2"></path><path d="M598.4 537L653.3 541L634.3 511Z" fill="#ffffff" stroke="#e2e2e2"></path><path d="M483.5 600L546.4 600L527.4 557Z" fill="#ffffff" stroke="#e2e2e2"></path><path d="M411.5 0L369.6 43L421.5 56Z" fill="#ffffff" stroke="#e2e2e2"></path><path d="M421.5 56L369.6 43L418.5 95Z" fill="#ffffff" stroke="#e2e2e2"></path><path d="M676.2 141L625.3 88L617.3 130Z" fill="#ffffff" stroke="#e2e2e2"></path><path d="M531.4 58L533.4 0L493.5 42Z" fill="#ffffff" stroke="#e2e2e2"></path><path d="M175.8 280L155.8 335L197.8 331Z" fill="#ffffff" stroke="#e2e2e2"></path><path d="M206.8 402L171.8 436L218.8 444Z" fill="#ffffff" stroke="#e2e2e2"></path><path d="M740.2 318L738.2 253L700.2 319Z" fill="#ffffff" stroke="#e2e2e2"></path><path d="M625.3 600L653.3 541L598.4 537Z" fill="#ffffff" stroke="#e2e2e2"></path><path d="M634.3 511L702.2 484L641.3 456Z" fill="#ffffff" stroke="#e2e2e2"></path><path d="M653.3 541L702.2 484L634.3 511Z" fill="#ffffff" stroke="#e2e2e2"></path><path d="M807.1 389L749.2 335L729.2 384Z" fill="#ffffff" stroke="#e2e2e2"></path><path d="M729.2 384L749.2 335L700.2 319Z" fill="#ffffff" stroke="#e2e2e2"></path><path d="M740.2 318L780.1 315L738.2 253Z" fill="#ffffff" stroke="#e2e2e2"></path><path d="M269.7 57L257.7 94L311.6 87Z" fill="#ffffff" stroke="#e2e2e2"></path><path d="M311.6 87L257.7 94L301.6 140Z" fill="#ffffff" stroke="#e2e2e2"></path><path d="M255.7 165L195.8 156L226.8 212Z" fill="#ffffff" stroke="#e2e2e2"></path><path d="M140.8 417L171.8 436L206.8 402Z" fill="#ffffff" stroke="#e2e2e2"></path><path d="M204.8 516L246.7 555L280.7 493Z" fill="#ffffff" stroke="#e2e2e2"></path><path d="M336.6 565L315.6 600L378.6 600Z" fill="#ffffff" stroke="#e2e2e2"></path><path d="M546.4 600L576.4 600L527.4 557Z" fill="#ffffff" stroke="#e2e2e2"></path><path d="M221.8 91L195.8 156L255.7 165Z" fill="#ffffff" stroke="#e2e2e2"></path><path d="M175.8 280L113.9 296L155.8 335Z" fill="#ffffff" stroke="#e2e2e2"></path><path d="M195.8 156L167.8 209L226.8 212Z" fill="#ffffff" stroke="#e2e2e2"></path><path d="M246.7 555L336.6 565L280.7 493Z" fill="#ffffff" stroke="#e2e2e2"></path><path d="M369.6 43L319.6 46L354.6 106Z" fill="#ffffff" stroke="#e2e2e2"></path><path d="M204.8 516L280.7 493L218.8 444Z" fill="#ffffff" stroke="#e2e2e2"></path><path d="M625.3 88L576.4 39L589.4 112Z" fill="#ffffff" stroke="#e2e2e2"></path><path d="M493.5 42L463.5 0L421.5 56Z" fill="#ffffff" stroke="#e2e2e2"></path><path d="M157.8 505L204.8 516L218.8 444Z" fill="#ffffff" stroke="#e2e2e2"></path><path d="M112.9 190L138.8 248L167.8 209Z" fill="#ffffff" stroke="#e2e2e2"></path><path d="M167.8 209L138.8 248L175.8 280Z" fill="#ffffff" stroke="#e2e2e2"></path><path d="M155.8 335L140.8 417L206.8 402Z" fill="#ffffff" stroke="#e2e2e2"></path><path d="M319.6 46L269.7 57L311.6 87Z" fill="#ffffff" stroke="#e2e2e2"></path><path d="M257.7 94L221.8 91L255.7 165Z" fill="#ffffff" stroke="#e2e2e2"></path><path d="M726.2 130L689.2 106L676.2 141Z" fill="#ffffff" stroke="#e2e2e2"></path><path d="M676.2 141L689.2 106L625.3 88Z" fill="#ffffff" stroke="#e2e2e2"></path><path d="M625.3 88L636.3 46L576.4 39Z" fill="#ffffff" stroke="#e2e2e2"></path><path d="M116.9 393L140.8 417L155.8 335Z" fill="#ffffff" stroke="#e2e2e2"></path><path d="M171.8 436L157.8 505L218.8 444Z" fill="#ffffff" stroke="#e2e2e2"></path><path d="M533.4 0L463.5 0L493.5 42Z" fill="#ffffff" stroke="#e2e2e2"></path><path d="M369.6 43L322.6 0L319.6 46Z" fill="#ffffff" stroke="#e2e2e2"></path><path d="M319.6 46L261.7 0L269.7 57Z" fill="#ffffff" stroke="#e2e2e2"></path><path d="M576.4 600L625.3 600L598.4 537Z" fill="#ffffff" stroke="#e2e2e2"></path><path d="M698.2 550L736.2 495L702.2 484Z" fill="#ffffff" stroke="#e2e2e2"></path><path d="M463.5 0L411.5 0L421.5 56Z" fill="#ffffff" stroke="#e2e2e2"></path><path d="M269.7 57L221.8 91L257.7 94Z" fill="#ffffff" stroke="#e2e2e2"></path><path d="M195.8 156L143.8 158L167.8 209Z" fill="#ffffff" stroke="#e2e2e2"></path><path d="M738.2 253L750.2 192L702.2 252Z" fill="#ffffff" stroke="#e2e2e2"></path><path d="M778.1 234L750.2 192L738.2 253Z" fill="#ffffff" stroke="#e2e2e2"></path><path d="M736.2 495L759.2 437L702.2 484Z" fill="#ffffff" stroke="#e2e2e2"></path><path d="M702.2 484L759.2 437L677.2 438Z" fill="#ffffff" stroke="#e2e2e2"></path><path d="M749.2 335L780.1 315L740.2 318Z" fill="#ffffff" stroke="#e2e2e2"></path><path d="M813.1 346L780.1 315L749.2 335Z" fill="#ffffff" stroke="#e2e2e2"></path><path d="M411.5 0L384.6 0L369.6 43Z" fill="#ffffff" stroke="#e2e2e2"></path><path d="M698.2 550L702.2 484L653.3 541Z" fill="#ffffff" stroke="#e2e2e2"></path><path d="M217.8 600L263.7 600L246.7 555Z" fill="#ffffff" stroke="#e2e2e2"></path><path d="M246.7 555L263.7 600L315.6 600Z" fill="#ffffff" stroke="#e2e2e2"></path><path d="M699.2 59L636.3 46L625.3 88Z" fill="#ffffff" stroke="#e2e2e2"></path><path d="M576.4 39L533.4 0L531.4 58Z" fill="#ffffff" stroke="#e2e2e2"></path><path d="M583.4 0L533.4 0L576.4 39Z" fill="#ffffff" stroke="#e2e2e2"></path><path d="M688.2 600L698.2 550L653.3 541Z" fill="#ffffff" stroke="#e2e2e2"></path><path d="M750.2 192L726.2 130L671.2 191Z" fill="#ffffff" stroke="#e2e2e2"></path><path d="M689.2 106L699.2 59L625.3 88Z" fill="#ffffff" stroke="#e2e2e2"></path><path d="M138.8 248L113.9 296L175.8 280Z" fill="#ffffff" stroke="#e2e2e2"></path><path d="M780.1 315L778.1 234L738.2 253Z" fill="#ffffff" stroke="#e2e2e2"></path><path d="M775.1 98L727.2 85L726.2 130Z" fill="#ffffff" stroke="#e2e2e2"></path><path d="M85.9 333L116.9 393L155.8 335Z" fill="#ffffff" stroke="#e2e2e2"></path><path d="M161.8 567L204.8 562L204.8 516Z" fill="#ffffff" stroke="#e2e2e2"></path><path d="M204.8 516L204.8 562L246.7 555Z" fill="#ffffff" stroke="#e2e2e2"></path><path d="M157.8 505L171.8 436L140.8 417Z" fill="#ffffff" stroke="#e2e2e2"></path><path d="M90.9 439L157.8 505L140.8 417Z" fill="#ffffff" stroke="#e2e2e2"></path><path d="M384.6 0L322.6 0L369.6 43Z" fill="#ffffff" stroke="#e2e2e2"></path><path d="M146.8 36L159.8 117L221.8 91Z" fill="#ffffff" stroke="#e2e2e2"></path><path d="M159.8 117L195.8 156L221.8 91Z" fill="#ffffff" stroke="#e2e2e2"></path><path d="M159.8 117L143.8 158L195.8 156Z" fill="#ffffff" stroke="#e2e2e2"></path><path d="M138.8 248L90.9 264L113.9 296Z" fill="#ffffff" stroke="#e2e2e2"></path><path d="M636.3 46L583.4 0L576.4 39Z" fill="#ffffff" stroke="#e2e2e2"></path><path d="M801.1 491L777.1 460L736.2 495Z" fill="#ffffff" stroke="#e2e2e2"></path><path d="M736.2 495L777.1 460L759.2 437Z" fill="#ffffff" stroke="#e2e2e2"></path><path d="M759.2 437L807.1 389L729.2 384Z" fill="#ffffff" stroke="#e2e2e2"></path><path d="M230.8 38L221.8 91L269.7 57Z" fill="#ffffff" stroke="#e2e2e2"></path><path d="M261.7 0L230.8 38L269.7 57Z" fill="#ffffff" stroke="#e2e2e2"></path><path d="M204.8 562L217.8 600L246.7 555Z" fill="#ffffff" stroke="#e2e2e2"></path><path d="M155.8 600L217.8 600L204.8 562Z" fill="#ffffff" stroke="#e2e2e2"></path><path d="M828.1 446L807.1 389L759.2 437Z" fill="#ffffff" stroke="#e2e2e2"></path><path d="M780.1 315L841.1 291L778.1 234Z" fill="#ffffff" stroke="#e2e2e2"></path><path d="M807.1 389L813.1 346L749.2 335Z" fill="#ffffff" stroke="#e2e2e2"></path><path d="M727.2 85L699.2 59L689.2 106Z" fill="#ffffff" stroke="#e2e2e2"></path><path d="M636.3 46L648.3 0L583.4 0Z" fill="#ffffff" stroke="#e2e2e2"></path><path d="M727.2 85L689.2 106L726.2 130Z" fill="#ffffff" stroke="#e2e2e2"></path><path d="M88.9 167L112.9 190L143.8 158Z" fill="#ffffff" stroke="#e2e2e2"></path><path d="M143.8 158L112.9 190L167.8 209Z" fill="#ffffff" stroke="#e2e2e2"></path><path d="M625.3 600L688.2 600L653.3 541Z" fill="#ffffff" stroke="#e2e2e2"></path><path d="M698.2 550L747.2 566L736.2 495Z" fill="#ffffff" stroke="#e2e2e2"></path><path d="M112.9 190L90.9 264L138.8 248Z" fill="#ffffff" stroke="#e2e2e2"></path><path d="M113.9 296L85.9 333L155.8 335Z" fill="#ffffff" stroke="#e2e2e2"></path><path d="M90.9 264L85.9 333L113.9 296Z" fill="#ffffff" stroke="#e2e2e2"></path><path d="M104.9 552L161.8 567L157.8 505Z" fill="#ffffff" stroke="#e2e2e2"></path><path d="M775.1 98L726.2 130L798.1 131Z" fill="#ffffff" stroke="#e2e2e2"></path><path d="M778.1 234L806.1 203L750.2 192Z" fill="#ffffff" stroke="#e2e2e2"></path><path d="M864.1 259L806.1 203L778.1 234Z" fill="#ffffff" stroke="#e2e2e2"></path><path d="M322.6 0L261.7 0L319.6 46Z" fill="#ffffff" stroke="#e2e2e2"></path><path d="M108.9 83L143.8 158L159.8 117Z" fill="#ffffff" stroke="#e2e2e2"></path><path d="M90.9 439L140.8 417L116.9 393Z" fill="#ffffff" stroke="#e2e2e2"></path><path d="M157.8 505L161.8 567L204.8 516Z" fill="#ffffff" stroke="#e2e2e2"></path><path d="M69.9 414L90.9 439L116.9 393Z" fill="#ffffff" stroke="#e2e2e2"></path><path d="M674.2 0L636.3 46L699.2 59Z" fill="#ffffff" stroke="#e2e2e2"></path><path d="M674.2 0L648.3 0L636.3 46Z" fill="#ffffff" stroke="#e2e2e2"></path><path d="M807.1 389L830.1 361L813.1 346Z" fill="#ffffff" stroke="#e2e2e2"></path><path d="M813.1 346L841.1 291L780.1 315Z" fill="#ffffff" stroke="#e2e2e2"></path><path d="M864.1 419L830.1 361L807.1 389Z" fill="#ffffff" stroke="#e2e2e2"></path><path d="M729.2 600L747.2 566L698.2 550Z" fill="#ffffff" stroke="#e2e2e2"></path><path d="M777.1 460L828.1 446L759.2 437Z" fill="#ffffff" stroke="#e2e2e2"></path><path d="M787.1 536L801.1 491L736.2 495Z" fill="#ffffff" stroke="#e2e2e2"></path><path d="M830.1 361L841.1 291L813.1 346Z" fill="#ffffff" stroke="#e2e2e2"></path><path d="M43.9 342L69.9 414L85.9 333Z" fill="#ffffff" stroke="#e2e2e2"></path><path d="M85.9 333L69.9 414L116.9 393Z" fill="#ffffff" stroke="#e2e2e2"></path><path d="M90.9 439L88.9 494L157.8 505Z" fill="#ffffff" stroke="#e2e2e2"></path><path d="M688.2 600L729.2 600L698.2 550Z" fill="#ffffff" stroke="#e2e2e2"></path><path d="M747.2 566L787.1 536L736.2 495Z" fill="#ffffff" stroke="#e2e2e2"></path><path d="M775.1 98L730.2 49L727.2 85Z" fill="#ffffff" stroke="#e2e2e2"></path><path d="M727.2 85L730.2 49L699.2 59Z" fill="#ffffff" stroke="#e2e2e2"></path><path d="M732.2 0L674.2 0L699.2 59Z" fill="#ffffff" stroke="#e2e2e2"></path><path d="M108.9 83L88.9 167L143.8 158Z" fill="#ffffff" stroke="#e2e2e2"></path><path d="M35.9 213L51.9 264L90.9 264Z" fill="#ffffff" stroke="#e2e2e2"></path><path d="M90.9 264L39.9 315L85.9 333Z" fill="#ffffff" stroke="#e2e2e2"></path><path d="M146.8 36L221.8 91L230.8 38Z" fill="#ffffff" stroke="#e2e2e2"></path><path d="M798.1 131L726.2 130L750.2 192Z" fill="#ffffff" stroke="#e2e2e2"></path><path d="M798.1 131L750.2 192L806.1 203Z" fill="#ffffff" stroke="#e2e2e2"></path><path d="M801.1 491L828.1 446L777.1 460Z" fill="#ffffff" stroke="#e2e2e2"></path><path d="M900 282L864.1 259L841.1 291Z" fill="#ffffff" stroke="#e2e2e2"></path><path d="M861.1 135L798.1 131L806.1 203Z" fill="#ffffff" stroke="#e2e2e2"></path><path d="M779.1 600L787.1 536L747.2 566Z" fill="#ffffff" stroke="#e2e2e2"></path><path d="M852.1 482L864.1 419L828.1 446Z" fill="#ffffff" stroke="#e2e2e2"></path><path d="M37.9 450L88.9 494L90.9 439Z" fill="#ffffff" stroke="#e2e2e2"></path><path d="M35.9 213L90.9 264L112.9 190Z" fill="#ffffff" stroke="#e2e2e2"></path><path d="M104.9 552L155.8 600L161.8 567Z" fill="#ffffff" stroke="#e2e2e2"></path><path d="M161.8 567L155.8 600L204.8 562Z" fill="#ffffff" stroke="#e2e2e2"></path><path d="M261.7 0L204.8 0L230.8 38Z" fill="#ffffff" stroke="#e2e2e2"></path><path d="M39.9 315L43.9 342L85.9 333Z" fill="#ffffff" stroke="#e2e2e2"></path><path d="M69.9 414L37.9 450L90.9 439Z" fill="#ffffff" stroke="#e2e2e2"></path><path d="M51.9 264L39.9 315L90.9 264Z" fill="#ffffff" stroke="#e2e2e2"></path><path d="M70.9 534L104.9 552L88.9 494Z" fill="#ffffff" stroke="#e2e2e2"></path><path d="M88.9 494L104.9 552L157.8 505Z" fill="#ffffff" stroke="#e2e2e2"></path><path d="M900 358L841.1 291L830.1 361Z" fill="#ffffff" stroke="#e2e2e2"></path><path d="M841.1 291L864.1 259L778.1 234Z" fill="#ffffff" stroke="#e2e2e2"></path><path d="M146.8 36L108.9 83L159.8 117Z" fill="#ffffff" stroke="#e2e2e2"></path><path d="M88.9 167L35.9 213L112.9 190Z" fill="#ffffff" stroke="#e2e2e2"></path><path d="M204.8 0L146.8 36L230.8 38Z" fill="#ffffff" stroke="#e2e2e2"></path><path d="M852.1 482L828.1 446L801.1 491Z" fill="#ffffff" stroke="#e2e2e2"></path><path d="M828.1 446L864.1 419L807.1 389Z" fill="#ffffff" stroke="#e2e2e2"></path><path d="M864.1 259L860.1 201L806.1 203Z" fill="#ffffff" stroke="#e2e2e2"></path><path d="M794.1 41L730.2 49L775.1 98Z" fill="#ffffff" stroke="#e2e2e2"></path><path d="M729.2 600L779.1 600L747.2 566Z" fill="#ffffff" stroke="#e2e2e2"></path><path d="M865.1 557L852.1 482L801.1 491Z" fill="#ffffff" stroke="#e2e2e2"></path><path d="M730.2 49L732.2 0L699.2 59Z" fill="#ffffff" stroke="#e2e2e2"></path><path d="M779.1 0L732.2 0L730.2 49Z" fill="#ffffff" stroke="#e2e2e2"></path><path d="M794.1 41L775.1 98L843.1 61Z" fill="#ffffff" stroke="#e2e2e2"></path><path d="M204.8 0L169.8 0L146.8 36Z" fill="#ffffff" stroke="#e2e2e2"></path><path d="M146.8 36L102.9 52L108.9 83Z" fill="#ffffff" stroke="#e2e2e2"></path><path d="M36.9 138L35.9 213L88.9 167Z" fill="#ffffff" stroke="#e2e2e2"></path><path d="M0 317L0 330L39.9 315Z" fill="#ffffff" stroke="#e2e2e2"></path><path d="M865.1 557L801.1 491L787.1 536Z" fill="#ffffff" stroke="#e2e2e2"></path><path d="M0 401L69.9 414L43.9 342Z" fill="#ffffff" stroke="#e2e2e2"></path><path d="M0 401L37.9 450L69.9 414Z" fill="#ffffff" stroke="#e2e2e2"></path><path d="M0 330L43.9 342L39.9 315Z" fill="#ffffff" stroke="#e2e2e2"></path><path d="M34.9 516L70.9 534L88.9 494Z" fill="#ffffff" stroke="#e2e2e2"></path><path d="M104.9 552L100.9 600L155.8 600Z" fill="#ffffff" stroke="#e2e2e2"></path><path d="M115.9 0L102.9 52L146.8 36Z" fill="#ffffff" stroke="#e2e2e2"></path><path d="M43.9 116L36.9 138L88.9 167Z" fill="#ffffff" stroke="#e2e2e2"></path><path d="M850.1 106L775.1 98L798.1 131Z" fill="#ffffff" stroke="#e2e2e2"></path><path d="M63.9 600L100.9 600L104.9 552Z" fill="#ffffff" stroke="#e2e2e2"></path><path d="M900 400L900 358L864.1 419Z" fill="#ffffff" stroke="#e2e2e2"></path><path d="M864.1 419L900 358L830.1 361Z" fill="#ffffff" stroke="#e2e2e2"></path><path d="M864.1 259L900 237L860.1 201Z" fill="#ffffff" stroke="#e2e2e2"></path><path d="M900 358L900 282L841.1 291Z" fill="#ffffff" stroke="#e2e2e2"></path><path d="M860.1 201L861.1 135L806.1 203Z" fill="#ffffff" stroke="#e2e2e2"></path><path d="M0 317L39.9 315L0 252Z" fill="#ffffff" stroke="#e2e2e2"></path><path d="M0 252L39.9 315L51.9 264Z" fill="#ffffff" stroke="#e2e2e2"></path><path d="M900 181L861.1 135L860.1 201Z" fill="#ffffff" stroke="#e2e2e2"></path><path d="M43.9 116L88.9 167L108.9 83Z" fill="#ffffff" stroke="#e2e2e2"></path><path d="M35.9 213L0 252L51.9 264Z" fill="#ffffff" stroke="#e2e2e2"></path><path d="M861.1 135L850.1 106L798.1 131Z" fill="#ffffff" stroke="#e2e2e2"></path><path d="M900 432L900 400L864.1 419Z" fill="#ffffff" stroke="#e2e2e2"></path><path d="M0 186L0 252L35.9 213Z" fill="#ffffff" stroke="#e2e2e2"></path><path d="M67.9 64L43.9 116L108.9 83Z" fill="#ffffff" stroke="#e2e2e2"></path><path d="M36.9 138L0 186L35.9 213Z" fill="#ffffff" stroke="#e2e2e2"></path><path d="M900 282L900 237L864.1 259Z" fill="#ffffff" stroke="#e2e2e2"></path><path d="M861.1 135L900 114L850.1 106Z" fill="#ffffff" stroke="#e2e2e2"></path><path d="M0 330L0 401L43.9 342Z" fill="#ffffff" stroke="#e2e2e2"></path><path d="M37.9 450L34.9 516L88.9 494Z" fill="#ffffff" stroke="#e2e2e2"></path><path d="M70.9 534L63.9 600L104.9 552Z" fill="#ffffff" stroke="#e2e2e2"></path><path d="M0 490L34.9 516L37.9 450Z" fill="#ffffff" stroke="#e2e2e2"></path><path d="M846.1 0L779.1 0L794.1 41Z" fill="#ffffff" stroke="#e2e2e2"></path><path d="M794.1 41L779.1 0L730.2 49Z" fill="#ffffff" stroke="#e2e2e2"></path><path d="M852.1 482L900 432L864.1 419Z" fill="#ffffff" stroke="#e2e2e2"></path><path d="M900 491L900 432L852.1 482Z" fill="#ffffff" stroke="#e2e2e2"></path><path d="M63.9 0L67.9 64L102.9 52Z" fill="#ffffff" stroke="#e2e2e2"></path><path d="M102.9 52L67.9 64L108.9 83Z" fill="#ffffff" stroke="#e2e2e2"></path><path d="M169.8 0L115.9 0L146.8 36Z" fill="#ffffff" stroke="#e2e2e2"></path><path d="M0 401L0 459L37.9 450Z" fill="#ffffff" stroke="#e2e2e2"></path><path d="M900 237L900 181L860.1 201Z" fill="#ffffff" stroke="#e2e2e2"></path><path d="M0 159L0 186L36.9 138Z" fill="#ffffff" stroke="#e2e2e2"></path><path d="M0 159L36.9 138L0 89Z" fill="#ffffff" stroke="#e2e2e2"></path><path d="M900 46L843.1 61L850.1 106Z" fill="#ffffff" stroke="#e2e2e2"></path><path d="M850.1 106L843.1 61L775.1 98Z" fill="#ffffff" stroke="#e2e2e2"></path><path d="M847.1 600L865.1 557L787.1 536Z" fill="#ffffff" stroke="#e2e2e2"></path><path d="M0 551L70.9 534L34.9 516Z" fill="#ffffff" stroke="#e2e2e2"></path><path d="M0 551L63.9 600L70.9 534Z" fill="#ffffff" stroke="#e2e2e2"></path><path d="M900 533L900 491L852.1 482Z" fill="#ffffff" stroke="#e2e2e2"></path><path d="M0 89L36.9 138L43.9 116Z" fill="#ffffff" stroke="#e2e2e2"></path><path d="M0 459L0 490L37.9 450Z" fill="#ffffff" stroke="#e2e2e2"></path><path d="M900 181L900 151L861.1 135Z" fill="#ffffff" stroke="#e2e2e2"></path><path d="M779.1 600L847.1 600L787.1 536Z" fill="#ffffff" stroke="#e2e2e2"></path><path d="M865.1 557L900 533L852.1 482Z" fill="#ffffff" stroke="#e2e2e2"></path><path d="M900 600L900 533L865.1 557Z" fill="#ffffff" stroke="#e2e2e2"></path><path d="M900 151L900 114L861.1 135Z" fill="#ffffff" stroke="#e2e2e2"></path><path d="M843.1 61L846.1 0L794.1 41Z" fill="#ffffff" stroke="#e2e2e2"></path><path d="M0 490L0 551L34.9 516Z" fill="#ffffff" stroke="#e2e2e2"></path><path d="M115.9 0L63.9 0L102.9 52Z" fill="#ffffff" stroke="#e2e2e2"></path><path d="M67.9 64L0 89L43.9 116Z" fill="#ffffff" stroke="#e2e2e2"></path><path d="M0 44L0 89L67.9 64Z" fill="#ffffff" stroke="#e2e2e2"></path><path d="M900 46L846.1 0L843.1 61Z" fill="#ffffff" stroke="#e2e2e2"></path><path d="M847.1 600L900 600L865.1 557Z" fill="#ffffff" stroke="#e2e2e2"></path><path d="M900 114L900 46L850.1 106Z" fill="#ffffff" stroke="#e2e2e2"></path><path d="M0 551L0 600L63.9 600Z" fill="#ffffff" stroke="#e2e2e2"></path><path d="M63.9 0L0 44L67.9 64Z" fill="#ffffff" stroke="#e2e2e2"></path><path d="M900 46L900 0L846.1 0Z" fill="#ffffff" stroke="#e2e2e2"></path><path d="M63.9 0L0 0L0 44Z" fill="#ffffff" stroke="#e2e2e2"></path></g></svg>